<svg width="13" height="13" viewBox="0 0 13 13" fill="none" xmlns="http://www.w3.org/2000/svg">
<g clip-path="url(#clip0_1386_7760)">
<path d="M6.5 3.79163V11.375" stroke="#FF6B7A" stroke-width="1.08333" stroke-linecap="round" stroke-linejoin="round"/>
<path d="M1.6276 9.75C1.48395 9.75 1.34617 9.69293 1.24459 9.59135C1.14301 9.48977 1.08594 9.35199 1.08594 9.20833V2.16667C1.08594 2.02301 1.14301 1.88523 1.24459 1.78365C1.34617 1.68207 1.48395 1.625 1.6276 1.625H4.33594C4.91057 1.625 5.46167 1.85327 5.868 2.2596C6.27433 2.66593 6.5026 3.21703 6.5026 3.79167C6.5026 3.21703 6.73088 2.66593 7.13721 2.2596C7.54354 1.85327 8.09464 1.625 8.66927 1.625H11.3776C11.5213 1.625 11.659 1.68207 11.7606 1.78365C11.8622 1.88523 11.9193 2.02301 11.9193 2.16667V9.20833C11.9193 9.35199 11.8622 9.48977 11.7606 9.59135C11.659 9.69293 11.5213 9.75 11.3776 9.75H8.1276C7.69663 9.75 7.2833 9.9212 6.97856 10.226C6.67381 10.5307 6.5026 10.944 6.5026 11.375C6.5026 10.944 6.3314 10.5307 6.02665 10.226C5.72191 9.9212 5.30858 9.75 4.8776 9.75H1.6276Z" stroke="#FF6B7A" stroke-width="1.08333" stroke-linecap="round" stroke-linejoin="round"/>
</g>
<defs>
<clipPath id="clip0_1386_7760">
<rect width="13" height="13" fill="white"/>
</clipPath>
</defs>
</svg>
