<svg width="13" height="13" viewBox="0 0 13 13" fill="none" xmlns="http://www.w3.org/2000/svg">
<g clip-path="url(#clip0_1386_7765)">
<path d="M8.37958 6.98206L9.2002 11.6003C9.20939 11.6547 9.20176 11.7106 9.17833 11.7605C9.1549 11.8104 9.11679 11.852 9.06908 11.8797C9.02138 11.9074 8.96636 11.9198 8.91139 11.9154C8.85642 11.911 8.8041 11.8899 8.76145 11.8549L6.82229 10.3994C6.72867 10.3295 6.61495 10.2917 6.4981 10.2917C6.38125 10.2917 6.26753 10.3295 6.17391 10.3994L4.23149 11.8543C4.18888 11.8892 4.13663 11.9103 4.08172 11.9148C4.02681 11.9192 3.97186 11.9068 3.92419 11.8792C3.87652 11.8516 3.83839 11.8101 3.81491 11.7603C3.79142 11.7104 3.78369 11.6546 3.79274 11.6003L4.61283 6.98206" stroke="#FF6B7A" stroke-width="1.08333" stroke-linecap="round" stroke-linejoin="round"/>
<path d="M6.5 7.58337C8.29493 7.58337 9.75 6.1283 9.75 4.33337C9.75 2.53845 8.29493 1.08337 6.5 1.08337C4.70507 1.08337 3.25 2.53845 3.25 4.33337C3.25 6.1283 4.70507 7.58337 6.5 7.58337Z" stroke="#FF6B7A" stroke-width="1.08333" stroke-linecap="round" stroke-linejoin="round"/>
</g>
<defs>
<clipPath id="clip0_1386_7765">
<rect width="13" height="13" fill="white"/>
</clipPath>
</defs>
</svg>
