<svg width="20" height="20" viewBox="0 0 20 20" fill="none" xmlns="http://www.w3.org/2000/svg">
<path d="M2.49123 13.6185C2.61376 13.9276 2.64104 14.2663 2.56956 14.591L1.68206 17.3327C1.62392 17.6153 1.71619 17.908 1.92595 18.1062C2.13572 18.3044 2.43311 18.38 2.71206 18.306L5.55623 17.4743C5.86266 17.4135 6.18 17.4401 6.47206 17.551C10.1458 19.2666 14.5212 18.0891 16.8376 14.7613C19.1541 11.4335 18.7391 6.92147 15.8546 4.07199C12.9701 1.22251 8.45333 0.86271 5.1541 3.21961C1.85486 5.57651 0.730845 9.96597 2.49123 13.6185Z" fill="white" fill-opacity="0.2"/>
<path d="M2.49123 13.6185C2.61376 13.9276 2.64104 14.2663 2.56956 14.591L1.68206 17.3327C1.62392 17.6153 1.71619 17.908 1.92595 18.1062C2.13572 18.3044 2.43311 18.38 2.71206 18.306L5.55623 17.4743C5.86266 17.4135 6.18 17.4401 6.47206 17.551C10.1458 19.2666 14.5212 18.0891 16.8376 14.7613C19.1541 11.4335 18.7391 6.92147 15.8546 4.07199C12.9701 1.22251 8.45333 0.86271 5.1541 3.21961C1.85486 5.57651 0.730845 9.96597 2.49123 13.6185V13.6185" stroke="white" stroke-width="1.66667" stroke-linecap="round" stroke-linejoin="round"/>
</svg>
