<svg width="18" height="18" viewBox="0 0 18 18" fill="none" xmlns="http://www.w3.org/2000/svg">
<g clip-path="url(#clip0_1386_8026)">
<path d="M8.64511 1.72117C8.71216 1.58571 8.85022 1.5 9.00136 1.5C9.1525 1.5 9.29057 1.58571 9.35761 1.72117L11.0901 5.23042C11.3218 5.69928 11.7689 6.02447 12.2864 6.10042L16.1609 6.66742C16.3106 6.68912 16.4351 6.79397 16.4819 6.93788C16.5287 7.08178 16.4897 7.23978 16.3814 7.34542L13.5794 10.0739C13.2042 10.4395 13.0329 10.9661 13.1211 11.4824L13.7826 15.3374C13.8091 15.4871 13.7478 15.6388 13.6248 15.7282C13.5018 15.8175 13.3386 15.8289 13.2044 15.7574L9.74086 13.9364C9.2776 13.6932 8.72437 13.6932 8.26111 13.9364L4.79836 15.7574C4.66422 15.8284 4.50134 15.8169 4.37858 15.7276C4.25583 15.6383 4.19463 15.4869 4.22086 15.3374L4.88161 11.4832C4.97022 10.9666 4.79883 10.4396 4.42336 10.0739L1.62136 7.34617C1.5121 7.24064 1.47253 7.08206 1.51942 6.93756C1.56631 6.79307 1.69145 6.68794 1.84186 6.66667L5.71561 6.10042C6.23365 6.02506 6.68149 5.69976 6.91336 5.23042L8.64511 1.72117" stroke="#FB0F0C" stroke-width="1.5" stroke-linecap="round" stroke-linejoin="round"/>
</g>
<defs>
<clipPath id="clip0_1386_8026">
<rect width="18" height="18" fill="white"/>
</clipPath>
</defs>
</svg>
