<svg width="24" height="24" viewBox="0 0 24 24" fill="none" xmlns="http://www.w3.org/2000/svg">
<path d="M11.5268 2.5947C11.6162 2.41409 11.8003 2.2998 12.0018 2.2998C12.2033 2.2998 12.3874 2.41409 12.4768 2.5947L14.7868 7.2737C15.0957 7.89884 15.6919 8.33243 16.3818 8.4337L21.5478 9.1897C21.7475 9.21863 21.9134 9.35843 21.9758 9.5503C22.0382 9.74218 21.9863 9.95284 21.8418 10.0937L18.1058 13.7317C17.6057 14.2191 17.3772 14.9213 17.4948 15.6097L18.3768 20.7497C18.4121 20.9493 18.3304 21.1516 18.1664 21.2707C18.0023 21.3898 17.7847 21.405 17.6058 21.3097L12.9878 18.8817C12.3701 18.5574 11.6325 18.5574 11.0148 18.8817L6.39782 21.3097C6.21895 21.4044 6.00178 21.389 5.83811 21.2699C5.67444 21.1509 5.59284 20.949 5.62782 20.7497L6.50882 15.6107C6.62696 14.922 6.39844 14.2192 5.89782 13.7317L2.16182 10.0947C2.01613 9.95399 1.96338 9.74255 2.02589 9.54989C2.08841 9.35723 2.25526 9.21705 2.45582 9.1887L7.62082 8.4337C8.31153 8.33321 8.90866 7.89948 9.21782 7.2737L11.5268 2.5947" stroke="#51A2FF" stroke-width="2" stroke-linecap="round" stroke-linejoin="round"/>
</svg>
